M48
;Layer_Color=9474304
;FILE_FORMAT=2:5
INCH,LZ
;TYPE=PLATED
T1F00S00C0.00984
T2F00S00C0.01181
T3F00S00C0.01575
T4F00S00C0.02756
T5F00S00C0.03937
T6F00S00C0.04724
T7F00S00C0.05118
T8F00S00C0.06693
T9F00S00C0.10236
%
T01
X034525Y00595
X010575Y005075
X005775Y013725
X014025Y01135
X01545Y0122
X01595Y0147
X01665Y015
X0173Y0149
X01795Y015
X01865Y01495
X01925Y015
X01835Y01655
X01765
X0177Y01865
X01705Y0186
X01685Y01915
X0163Y01995
X01565Y02105
X015375Y02355
X015725Y023825
X0162661Y0240661
X01625Y02495
X016175Y025375
X015375Y024925
X01765Y0249
Y02535
X017525Y024575
X01765Y02385
X018825Y024175
X01915Y02535
X02045Y024075
X02185Y023475
Y0217
X021525Y0216
X02135Y02085
X01995Y02
X01985Y0196
X0193311Y0196189
X0193189Y0210811
X0196252Y0214752
X01995Y0219
X0181Y022625
X0167Y0229444
X0128978Y0237772
X0129Y020725
X0139Y01815
Y01675
X020825Y01865
X022975Y018175
X02325Y017975
X025325Y018825
X02565Y01855
X0257Y01975
X0257264Y022
X025325Y02175
X0251358Y0228358
X024936Y023064
X02475Y0233
X02455Y023575
X02435Y023875
X02415Y024125
X02375Y024375
X02345Y02495
X024525Y0248
X024925
X0262Y024825
X026725
X02575Y025375
X0266Y022275
X026425Y0215
X02345Y022125
X0225Y022
X024875Y0154
X0253Y013825
X025675Y013575
X026025Y013925
X0264Y013225
X027475Y0145
X029725
X029375Y015225
Y0165
X02775Y0173
X027375Y019625
X027Y0211
X026875Y0226
X027725Y023875
Y024825
X028275Y02455
X0296Y024475
X03005Y025225
X0305Y024825
X03095Y023875
X031625Y0243
X028975Y023575
X0295Y0212
X029225Y020325
X029425Y019925
X0304Y0191
Y0182
X0314Y017175
X0322
X03345Y017475
X034425Y01565
X035325Y0137
X03545Y013225
X0349Y0124
X03265Y014025
X032125Y01965
X03435
X0351902Y0215152
X03685Y02135
X03645Y020825
X037175Y0205
X03785Y01965
Y01805
X03865Y01785
X03945Y017775
X040025Y017525
X04025Y017825
X040575Y014025
X039025Y0137
X039525Y0124
X036525Y017275
X036125Y022825
X034861Y023064
X03505Y025175
X0374
X038025Y024325
X03775Y022
X039275Y022875
X0396
X041175Y0233
X0272Y010375
X0271Y0275659
X028325Y0279
X0303Y0284283
Y029175
X03065Y0302
X03225Y02895
X031325Y027775
X034Y029375
X034775Y029475
X035075Y026925
X0264Y0279
X024275Y027875
X024625Y028525
Y026675
X024925Y02625
X02465Y02595
X024525Y025525
X025225Y025775
X023Y02625
X0221063Y0260437
X02185Y02645
X021525Y025725
X020625Y026125
X0203Y026375
X021175Y026825
X02245Y028375
T02
X005475Y010912
X005875
Y011325
X005475
Y011762
X005875
X006325
Y011325
Y010912
T03
X014025Y008725
X01695Y007375
T04
X01245Y0021565
Y004125
X017925Y00335
Y0053185
X0089Y0066827
Y0081
T05
X015Y0096252
X016
X017
X018
X0095309Y0185
X0040191
T06
X0328439Y0040524
X0286Y0113
Y0123
Y0133
T07
X0018744Y0249248
X0032524
X0046303
X0060083
X0073862
X0087642
X0101421
X0115201
X012898
X014276
T08
X0390644Y0087768
T09
X031765Y0013827
X0412925
M30
