G04 Layer_Color=32896*
%FSLAX44Y44*%
%MOMM*%
G71*
G01*
G75*
%ADD59C,0.2000*%
%ADD88C,0.2540*%
%ADD91C,0.2500*%
%ADD92C,0.6000*%
%ADD94C,0.3048*%
%ADD95C,0.3000*%
%ADD97C,0.1500*%
%ADD100C,0.1400*%
D59*
X366395Y406400D02*
G03*
X360045Y406400I-3175J0D01*
G01*
X856615Y610870D02*
Y623735D01*
X841155Y610470D02*
Y623970D01*
Y610470D02*
X877155D01*
X841155Y623970D02*
X877155D01*
Y610470D02*
Y623970D01*
X854710Y610870D02*
Y623735D01*
X625475Y682460D02*
Y695325D01*
X640935Y682225D02*
Y695725D01*
X604935D02*
X640935D01*
X604935Y682225D02*
X640935D01*
X604935D02*
Y695725D01*
X627380Y682460D02*
Y695325D01*
X347905Y406400D02*
Y457200D01*
X379655D01*
Y406400D02*
Y457200D01*
X366395Y406400D02*
X379655D01*
X347905D02*
X360045D01*
X862060Y318565D02*
Y340565D01*
X860060Y318565D02*
Y340565D01*
X862060D01*
X860060Y318565D02*
X862060D01*
X422120Y146810D02*
Y155310D01*
X355120D02*
X422120D01*
X355120Y146810D02*
Y155310D01*
X147955Y123840D02*
Y135270D01*
Y174610D02*
Y186040D01*
X74295Y123840D02*
Y135270D01*
Y174610D02*
Y186040D01*
X147955D01*
X74295Y123840D02*
X147955D01*
X95225D02*
Y186040D01*
X641985Y307340D02*
Y320205D01*
X626525Y306940D02*
Y320440D01*
Y306940D02*
X662525D01*
X626525Y320440D02*
X662525D01*
Y306940D02*
Y320440D01*
X640080Y307340D02*
Y320205D01*
D88*
X1160000Y754390D02*
G03*
X1160000Y754390I-30000J0D01*
G01*
X598805Y607695D02*
G03*
X598805Y607695I-1270J0D01*
G01*
X80000Y40000D02*
G03*
X80000Y40000I-30000J0D01*
G01*
Y540000D02*
G03*
X80000Y540000I-30000J0D01*
G01*
X1160000Y40000D02*
G03*
X1160000Y40000I-30000J0D01*
G01*
X578485Y602535D02*
X582295D01*
X578485Y570535D02*
X582295D01*
X592645Y583565D02*
Y589915D01*
X567645Y583565D02*
Y589915D01*
X1042035Y77470D02*
X1080135Y115570D01*
Y114300D02*
Y115570D01*
X1089320Y273050D02*
Y377190D01*
D91*
X339755Y403750D02*
G03*
X339755Y403750I-1250J0D01*
G01*
X852310Y315565D02*
G03*
X852310Y315565I-1250J0D01*
G01*
X356320Y174310D02*
G03*
X356320Y174310I-1250J0D01*
G01*
D92*
X359405Y416170D02*
G03*
X359405Y416170I-3000J0D01*
G01*
D94*
X165100Y516255D02*
Y532765D01*
X139700Y516255D02*
Y532765D01*
Y554355D02*
Y572135D01*
X165100Y554355D02*
Y572135D01*
X139700Y516255D02*
X165100D01*
X139700Y572135D02*
X165100D01*
X393700Y320040D02*
Y332740D01*
X416560Y320040D02*
Y332740D01*
Y297180D02*
Y309880D01*
X393700Y297180D02*
Y309880D01*
Y332740D02*
X416560D01*
X393700Y297180D02*
X416560D01*
X411480Y359410D02*
Y372110D01*
X434340Y359410D02*
Y372110D01*
Y336550D02*
Y349250D01*
X411480Y336550D02*
Y349250D01*
Y372110D02*
X434340D01*
X411480Y336550D02*
X434340D01*
X427990Y320040D02*
Y332740D01*
X450850Y320040D02*
Y332740D01*
Y297180D02*
Y309880D01*
X427990Y297180D02*
Y309880D01*
Y332740D02*
X450850D01*
X427990Y297180D02*
X450850D01*
X444500Y359410D02*
Y372110D01*
X467360Y359410D02*
Y372110D01*
Y336550D02*
Y349250D01*
X444500Y336550D02*
Y349250D01*
Y372110D02*
X467360D01*
X444500Y336550D02*
X467360D01*
X462280Y320040D02*
Y332740D01*
X485140Y320040D02*
Y332740D01*
Y297180D02*
Y309880D01*
X462280Y297180D02*
Y309880D01*
Y332740D02*
X485140D01*
X462280Y297180D02*
X485140D01*
X667390Y680090D02*
Y692790D01*
X690250Y680090D02*
Y692790D01*
Y657230D02*
Y669930D01*
X667390Y657230D02*
Y669930D01*
Y692790D02*
X690250D01*
X667390Y657230D02*
X690250D01*
X693420Y680090D02*
Y692790D01*
X716280Y680090D02*
Y692790D01*
Y657230D02*
Y669930D01*
X693420Y657230D02*
Y669930D01*
Y692790D02*
X716280D01*
X693420Y657230D02*
X716280D01*
X745490Y652150D02*
X758190D01*
X745490Y675010D02*
X758190D01*
X768350D02*
X781050D01*
X768350Y652150D02*
X781050D01*
X745490D02*
Y675010D01*
X781050Y652150D02*
Y675010D01*
X768350Y701040D02*
X781050D01*
X768350Y678180D02*
X781050D01*
X745490D02*
X758190D01*
X745490Y701040D02*
X758190D01*
X781050Y678180D02*
Y701040D01*
X745490Y678180D02*
Y701040D01*
X742310Y657230D02*
Y669930D01*
X719450Y657230D02*
Y669930D01*
Y680090D02*
Y692790D01*
X742310Y680090D02*
Y692790D01*
X719450Y657230D02*
X742310D01*
X719450Y692790D02*
X742310D01*
X641350Y680090D02*
Y692790D01*
X664210Y680090D02*
Y692790D01*
Y657230D02*
Y669930D01*
X641350Y657230D02*
Y669930D01*
Y692790D02*
X664210D01*
X641350Y657230D02*
X664210D01*
X878840Y666750D02*
Y679450D01*
Y648970D02*
X880745Y647065D01*
X878840Y648970D02*
Y656590D01*
X901700Y648970D02*
Y656590D01*
X899795Y647065D02*
X901700Y648970D01*
Y666750D02*
Y679450D01*
X878840D02*
X881380D01*
X899160D02*
X901700D01*
X210180Y572140D02*
X235580D01*
X210180Y516260D02*
X235580D01*
Y554360D02*
Y572140D01*
X210180Y554360D02*
Y572140D01*
Y516260D02*
Y532770D01*
X235580Y516260D02*
Y532770D01*
X245750Y572140D02*
X271150D01*
X245750Y516260D02*
X271150D01*
Y554360D02*
Y572140D01*
X245750Y554360D02*
Y572140D01*
Y516260D02*
Y532770D01*
X271150Y516260D02*
Y532770D01*
X175895Y661035D02*
Y686435D01*
X231775Y661035D02*
Y686435D01*
X175895D02*
X193675D01*
X175895Y661035D02*
X193675D01*
X215265D02*
X231775D01*
X215265Y686435D02*
X231775D01*
X464820Y620395D02*
Y630555D01*
X447040Y620395D02*
Y630555D01*
Y638175D02*
Y649605D01*
X464820Y638175D02*
Y649605D01*
X447040Y620395D02*
X464820D01*
X447040Y649605D02*
X464820D01*
X486410Y620395D02*
Y630555D01*
X468630Y620395D02*
Y630555D01*
Y638175D02*
Y649605D01*
X486410Y638175D02*
Y649605D01*
X468630Y620395D02*
X486410D01*
X468630Y649605D02*
X486410D01*
X464820Y591185D02*
Y601345D01*
X447040Y591185D02*
Y601345D01*
Y608965D02*
Y620395D01*
X464820Y608965D02*
Y620395D01*
X447040Y591185D02*
X464820D01*
X447040Y620395D02*
X464820D01*
X433070Y590805D02*
Y600965D01*
X415290Y590805D02*
Y600965D01*
Y608585D02*
Y620015D01*
X433070Y608585D02*
Y620015D01*
X415290Y590805D02*
X433070D01*
X415290Y620015D02*
X433070D01*
X415290Y639065D02*
Y649225D01*
X433070Y639065D02*
Y649225D01*
Y620015D02*
Y631445D01*
X415290Y620015D02*
Y631445D01*
Y649225D02*
X433070D01*
X415290Y620015D02*
X433070D01*
X305430Y281310D02*
X318130D01*
X305430Y258450D02*
X318130D01*
X282570D02*
X295270D01*
X282570Y281310D02*
X295270D01*
X318130Y258450D02*
Y281310D01*
X282570Y258450D02*
Y281310D01*
X656585Y285750D02*
Y303530D01*
X627375Y285750D02*
Y303530D01*
X645155Y285750D02*
X656585D01*
X645155Y303530D02*
X656585D01*
X627375D02*
X637535D01*
X627375Y285750D02*
X637535D01*
X747390Y496570D02*
X760090D01*
X747390Y473710D02*
X760090D01*
X724530D02*
X737230D01*
X724530Y496570D02*
X737230D01*
X760090Y473710D02*
Y496570D01*
X724530Y473710D02*
Y496570D01*
X712470Y503550D02*
Y516250D01*
X689610Y503550D02*
Y516250D01*
Y526410D02*
Y539110D01*
X712470Y526410D02*
Y539110D01*
X689610Y503550D02*
X712470D01*
X689610Y539110D02*
X712470D01*
X733430Y507365D02*
Y517525D01*
X715650Y507365D02*
Y517525D01*
Y525145D02*
Y536575D01*
X733430Y525145D02*
Y536575D01*
X715650Y507365D02*
X733430D01*
X715650Y536575D02*
X733430D01*
X477520Y359410D02*
Y372110D01*
X500380Y359410D02*
Y372110D01*
Y336550D02*
Y349250D01*
X477520Y336550D02*
Y349250D01*
Y372110D02*
X500380D01*
X477520Y336550D02*
X500380D01*
X470535Y388620D02*
Y406400D01*
X441325Y388620D02*
Y406400D01*
X459105Y388620D02*
X470535D01*
X459105Y406400D02*
X470535D01*
X441325D02*
X451485D01*
X441325Y388620D02*
X451485D01*
X724535Y450850D02*
Y473710D01*
X760095Y450850D02*
Y473710D01*
X724535D02*
X737235D01*
X724535Y450850D02*
X737235D01*
X747395D02*
X760095D01*
X747395Y473710D02*
X760095D01*
X560070Y675005D02*
X577850D01*
X560070Y704215D02*
X577850D01*
X560070Y675005D02*
Y686435D01*
X577850Y675005D02*
Y686435D01*
Y694055D02*
Y704215D01*
X560070Y694055D02*
Y704215D01*
X683260Y737235D02*
X699770D01*
X683260Y711835D02*
X699770D01*
X643890D02*
X661670D01*
X643890Y737235D02*
X661670D01*
X699770Y711835D02*
Y737235D01*
X643890Y711835D02*
Y737235D01*
X711200Y710565D02*
X723900D01*
X711200Y733425D02*
X723900D01*
X734060D02*
X746760D01*
X734060Y710565D02*
X746760D01*
X711200D02*
Y733425D01*
X746760Y710565D02*
Y733425D01*
X425450Y516890D02*
Y529590D01*
X402590Y516890D02*
Y529590D01*
Y539750D02*
Y552450D01*
X425450Y539750D02*
Y552450D01*
X402590Y516890D02*
X425450D01*
X402590Y552450D02*
X425450D01*
X429260Y530860D02*
Y543560D01*
X452120Y530860D02*
Y543560D01*
Y508000D02*
Y520700D01*
X429260Y508000D02*
Y520700D01*
Y543560D02*
X452120D01*
X429260Y508000D02*
X452120D01*
X455930Y523240D02*
Y535940D01*
X478790Y523240D02*
Y535940D01*
Y500380D02*
Y513080D01*
X455930Y500380D02*
Y513080D01*
Y535940D02*
X478790D01*
X455930Y500380D02*
X478790D01*
X889000Y276860D02*
X906780D01*
X889000Y306070D02*
X906780D01*
X889000Y276860D02*
Y288290D01*
X906780Y276860D02*
Y288290D01*
Y295910D02*
Y306070D01*
X889000Y295910D02*
Y306070D01*
X836295Y349885D02*
X859155D01*
X836295Y385445D02*
X859155D01*
X836295Y349885D02*
Y362585D01*
X859155Y349885D02*
Y362585D01*
Y372745D02*
Y385445D01*
X836295Y372745D02*
Y385445D01*
X1032510Y402590D02*
X1055370D01*
X1032510Y438150D02*
X1055370D01*
X1032510Y402590D02*
Y415290D01*
X1055370Y402590D02*
Y415290D01*
Y425450D02*
Y438150D01*
X1032510Y425450D02*
Y438150D01*
X1005840Y402590D02*
X1028700D01*
X1005840Y438150D02*
X1028700D01*
X1005840Y402590D02*
Y415290D01*
X1028700Y402590D02*
Y415290D01*
Y425450D02*
Y438150D01*
X1005840Y425450D02*
Y438150D01*
X979170Y402590D02*
X1002030D01*
X979170Y438150D02*
X1002030D01*
X979170Y402590D02*
Y415290D01*
X1002030Y402590D02*
Y415290D01*
Y425450D02*
Y438150D01*
X979170Y425450D02*
Y438150D01*
X952500Y402590D02*
X975360D01*
X952500Y438150D02*
X975360D01*
X952500Y402590D02*
Y415290D01*
X975360Y402590D02*
Y415290D01*
Y425450D02*
Y438150D01*
X952500Y425450D02*
Y438150D01*
X862965Y308610D02*
X885825D01*
X862965Y273050D02*
X885825D01*
Y295910D02*
Y308610D01*
X862965Y295910D02*
Y308610D01*
Y273050D02*
Y285750D01*
X885825Y273050D02*
Y285750D01*
X836295Y308610D02*
X859155D01*
X836295Y273050D02*
X859155D01*
Y295910D02*
Y308610D01*
X836295Y295910D02*
Y308610D01*
Y273050D02*
Y285750D01*
X859155Y273050D02*
Y285750D01*
X862965Y349885D02*
X885825D01*
X862965Y385445D02*
X885825D01*
X862965Y349885D02*
Y362585D01*
X885825Y349885D02*
Y362585D01*
Y372745D02*
Y385445D01*
X862965Y372745D02*
Y385445D01*
X664210Y361950D02*
X666750D01*
X684530D02*
X687070D01*
X664210D02*
Y374650D01*
Y392430D02*
X666115Y394335D01*
X664210Y384810D02*
Y392430D01*
X687070Y384810D02*
Y392430D01*
X685165Y394335D02*
X687070Y392430D01*
Y361950D02*
Y374650D01*
X752470Y427360D02*
Y450220D01*
X716910Y427360D02*
Y450220D01*
X739770Y427360D02*
X752470D01*
X739770Y450220D02*
X752470D01*
X716910D02*
X729610D01*
X716910Y427360D02*
X729610D01*
X323850Y276225D02*
X346710D01*
X323850Y240665D02*
X346710D01*
Y263525D02*
Y276225D01*
X323850Y263525D02*
Y276225D01*
Y240665D02*
Y253365D01*
X346710Y240665D02*
Y253365D01*
X282575Y231775D02*
Y254635D01*
X318135Y231775D02*
Y254635D01*
X282575D02*
X295275D01*
X282575Y231775D02*
X295275D01*
X305435D02*
X318135D01*
X305435Y254635D02*
X318135D01*
X627380Y267335D02*
Y285115D01*
X656590Y267335D02*
Y285115D01*
X627380D02*
X638810D01*
X627380Y267335D02*
X638810D01*
X646430D02*
X656590D01*
X646430Y285115D02*
X656590D01*
X377825Y377190D02*
Y394970D01*
X348615Y377190D02*
Y394970D01*
X366395Y377190D02*
X377825D01*
X366395Y394970D02*
X377825D01*
X348615D02*
X358775D01*
X348615Y377190D02*
X358775D01*
X411480Y431800D02*
Y444500D01*
X434340Y431800D02*
Y444500D01*
Y408940D02*
Y421640D01*
X411480Y408940D02*
Y421640D01*
Y444500D02*
X434340D01*
X411480Y408940D02*
X434340D01*
X369570Y486410D02*
X382270D01*
X369570Y463550D02*
X382270D01*
X346710D02*
X359410D01*
X346710Y486410D02*
X359410D01*
X382270Y463550D02*
Y486410D01*
X346710Y463550D02*
Y486410D01*
X638810Y361315D02*
X661670D01*
X638810Y396875D02*
X661670D01*
X638810Y361315D02*
Y374015D01*
X661670Y361315D02*
Y374015D01*
Y384175D02*
Y396875D01*
X638810Y384175D02*
Y396875D01*
X913130Y413380D02*
X925830D01*
X913130Y436240D02*
X925830D01*
X935990D02*
X948690D01*
X935990Y413380D02*
X948690D01*
X913130D02*
Y436240D01*
X948690Y413380D02*
Y436240D01*
D95*
X1080135Y77470D02*
Y115570D01*
X782955Y77470D02*
X1080135D01*
Y212090D02*
Y250190D01*
X803275Y115570D02*
Y212090D01*
X782955Y115570D02*
X803275D01*
X782955Y212090D02*
X803275D01*
X1029335Y115570D02*
X1080135D01*
X1029335D02*
Y212090D01*
X1080135D01*
X782955Y77470D02*
Y115570D01*
Y212090D02*
Y250190D01*
X1080135D01*
X942000Y358140D02*
Y388620D01*
Y261620D02*
Y274320D01*
Y388620D02*
X952160D01*
X995340D02*
X1066460D01*
X995340Y261620D02*
X1066460D01*
X942000D02*
X952160D01*
D97*
X875030Y633743D02*
Y627911D01*
X873864Y626745D01*
X871531D01*
X870365Y627911D01*
Y633743D01*
X868032Y626745D02*
X865700D01*
X866866D01*
Y633743D01*
X868032Y632576D01*
X857536Y626745D02*
X862201D01*
X857536Y631410D01*
Y632576D01*
X858702Y633743D01*
X861034D01*
X862201Y632576D01*
X855203Y633743D02*
Y626745D01*
X851704D01*
X850538Y627911D01*
Y632576D01*
X851704Y633743D01*
X855203D01*
X843540Y626745D02*
X848205D01*
X843540Y631410D01*
Y632576D01*
X844706Y633743D01*
X847039D01*
X848205Y632576D01*
X638175Y704863D02*
Y699031D01*
X637009Y697865D01*
X634676D01*
X633510Y699031D01*
Y704863D01*
X631177Y697865D02*
X628845D01*
X630011D01*
Y704863D01*
X631177Y703697D01*
X620681Y697865D02*
X625346D01*
X620681Y702530D01*
Y703697D01*
X621847Y704863D01*
X624179D01*
X625346Y703697D01*
X618348Y704863D02*
Y697865D01*
X614849D01*
X613683Y699031D01*
Y703697D01*
X614849Y704863D01*
X618348D01*
X611350Y697865D02*
X609018D01*
X610184D01*
Y704863D01*
X611350Y703697D01*
X168910Y584208D02*
Y578376D01*
X167744Y577210D01*
X165411D01*
X164245Y578376D01*
Y584208D01*
X161912Y577210D02*
X159580D01*
X160746D01*
Y584208D01*
X161912Y583041D01*
X156081D02*
X154915Y584208D01*
X152582D01*
X151416Y583041D01*
Y578376D01*
X152582Y577210D01*
X154915D01*
X156081Y578376D01*
Y583041D01*
X149083Y584208D02*
Y577210D01*
X144418D01*
X137420D02*
X142085D01*
X137420Y581875D01*
Y583041D01*
X138586Y584208D01*
X140919D01*
X142085Y583041D01*
X720725Y488963D02*
Y483131D01*
X719559Y481965D01*
X717226D01*
X716060Y483131D01*
Y488963D01*
X713727Y481965D02*
X711395D01*
X712561D01*
Y488963D01*
X713727Y487797D01*
X707896D02*
X706730Y488963D01*
X704397D01*
X703231Y487797D01*
Y486630D01*
X704397Y485464D01*
X705563D01*
X704397D01*
X703231Y484298D01*
Y483131D01*
X704397Y481965D01*
X706730D01*
X707896Y483131D01*
X700898Y481965D02*
Y488963D01*
X697399D01*
X696233Y487797D01*
Y485464D01*
X697399Y484298D01*
X700898D01*
X698566D02*
X696233Y481965D01*
X693900Y487797D02*
X692734Y488963D01*
X690401D01*
X689235Y487797D01*
Y486630D01*
X690401Y485464D01*
X691568D01*
X690401D01*
X689235Y484298D01*
Y483131D01*
X690401Y481965D01*
X692734D01*
X693900Y483131D01*
X946785Y450228D02*
Y444396D01*
X945619Y443230D01*
X943286D01*
X942120Y444396D01*
Y450228D01*
X939787Y443230D02*
X937455D01*
X938621D01*
Y450228D01*
X939787Y449062D01*
X933956D02*
X932790Y450228D01*
X930457D01*
X929291Y449062D01*
Y447895D01*
X930457Y446729D01*
X931623D01*
X930457D01*
X929291Y445563D01*
Y444396D01*
X930457Y443230D01*
X932790D01*
X933956Y444396D01*
X926958Y443230D02*
Y450228D01*
X923459D01*
X922293Y449062D01*
Y446729D01*
X923459Y445563D01*
X926958D01*
X924625D02*
X922293Y443230D01*
X919960D02*
X917628D01*
X918794D01*
Y450228D01*
X919960Y449062D01*
X781050Y711213D02*
Y705381D01*
X779884Y704215D01*
X777551D01*
X776385Y705381D01*
Y711213D01*
X774052Y704215D02*
X771720D01*
X772886D01*
Y711213D01*
X774052Y710046D01*
X763556Y704215D02*
X768221D01*
X763556Y708880D01*
Y710046D01*
X764722Y711213D01*
X767055D01*
X768221Y710046D01*
X761223Y704215D02*
Y711213D01*
X757724D01*
X756558Y710046D01*
Y707714D01*
X757724Y706548D01*
X761223D01*
X758891D02*
X756558Y704215D01*
X754225Y711213D02*
X749560D01*
Y710046D01*
X754225Y705381D01*
Y704215D01*
X741680Y703593D02*
Y697761D01*
X740514Y696595D01*
X738181D01*
X737015Y697761D01*
Y703593D01*
X734682Y696595D02*
X732350D01*
X733516D01*
Y703593D01*
X734682Y702427D01*
X724186Y696595D02*
X728851D01*
X724186Y701260D01*
Y702427D01*
X725352Y703593D01*
X727684D01*
X728851Y702427D01*
X721853Y696595D02*
Y703593D01*
X718354D01*
X717188Y702427D01*
Y700094D01*
X718354Y698928D01*
X721853D01*
X719520D02*
X717188Y696595D01*
X710190Y703593D02*
X712523Y702427D01*
X714855Y700094D01*
Y697761D01*
X713689Y696595D01*
X711356D01*
X710190Y697761D01*
Y698928D01*
X711356Y700094D01*
X714855D01*
X779780Y648983D02*
Y643151D01*
X778614Y641985D01*
X776281D01*
X775115Y643151D01*
Y648983D01*
X772782Y641985D02*
X770450D01*
X771616D01*
Y648983D01*
X772782Y647816D01*
X762286Y641985D02*
X766951D01*
X762286Y646650D01*
Y647816D01*
X763452Y648983D01*
X765785D01*
X766951Y647816D01*
X759953Y641985D02*
Y648983D01*
X756454D01*
X755288Y647816D01*
Y645484D01*
X756454Y644318D01*
X759953D01*
X757620D02*
X755288Y641985D01*
X748290Y648983D02*
X752955D01*
Y645484D01*
X750623Y646650D01*
X749456D01*
X748290Y645484D01*
Y643151D01*
X749456Y641985D01*
X751789D01*
X752955Y643151D01*
X719455Y652158D02*
Y646326D01*
X718289Y645160D01*
X715956D01*
X714790Y646326D01*
Y652158D01*
X712457Y645160D02*
X710125D01*
X711291D01*
Y652158D01*
X712457Y650992D01*
X701961Y645160D02*
X706626D01*
X701961Y649825D01*
Y650992D01*
X703127Y652158D01*
X705460D01*
X706626Y650992D01*
X699628Y645160D02*
Y652158D01*
X696129D01*
X694963Y650992D01*
Y648659D01*
X696129Y647493D01*
X699628D01*
X697296D02*
X694963Y645160D01*
X689131D02*
Y652158D01*
X692630Y648659D01*
X687965D01*
X694690Y703593D02*
Y697761D01*
X693524Y696595D01*
X691191D01*
X690025Y697761D01*
Y703593D01*
X687692Y696595D02*
X685360D01*
X686526D01*
Y703593D01*
X687692Y702427D01*
X677196Y696595D02*
X681861D01*
X677196Y701260D01*
Y702427D01*
X678362Y703593D01*
X680695D01*
X681861Y702427D01*
X674863Y696595D02*
Y703593D01*
X671364D01*
X670198Y702427D01*
Y700094D01*
X671364Y698928D01*
X674863D01*
X672531D02*
X670198Y696595D01*
X667865Y702427D02*
X666699Y703593D01*
X664366D01*
X663200Y702427D01*
Y701260D01*
X664366Y700094D01*
X665533D01*
X664366D01*
X663200Y698928D01*
Y697761D01*
X664366Y696595D01*
X666699D01*
X667865Y697761D01*
X667385Y652793D02*
Y646961D01*
X666219Y645795D01*
X663886D01*
X662720Y646961D01*
Y652793D01*
X660387Y645795D02*
X658055D01*
X659221D01*
Y652793D01*
X660387Y651627D01*
X649891Y645795D02*
X654556D01*
X649891Y650460D01*
Y651627D01*
X651057Y652793D01*
X653390D01*
X654556Y651627D01*
X647558Y645795D02*
Y652793D01*
X644059D01*
X642893Y651627D01*
Y649294D01*
X644059Y648128D01*
X647558D01*
X645226D02*
X642893Y645795D01*
X635895D02*
X640560D01*
X635895Y650460D01*
Y651627D01*
X637061Y652793D01*
X639394D01*
X640560Y651627D01*
X904875Y695338D02*
Y689506D01*
X903709Y688340D01*
X901376D01*
X900210Y689506D01*
Y695338D01*
X897877Y688340D02*
X895545D01*
X896711D01*
Y695338D01*
X897877Y694172D01*
X887381Y688340D02*
X892046D01*
X887381Y693005D01*
Y694172D01*
X888547Y695338D01*
X890880D01*
X892046Y694172D01*
X880383D02*
X881549Y695338D01*
X883882D01*
X885048Y694172D01*
Y689506D01*
X883882Y688340D01*
X881549D01*
X880383Y689506D01*
X873385Y688340D02*
X878050D01*
X873385Y693005D01*
Y694172D01*
X874551Y695338D01*
X876884D01*
X878050Y694172D01*
X238125Y511823D02*
Y505991D01*
X236959Y504825D01*
X234626D01*
X233460Y505991D01*
Y511823D01*
X231127Y504825D02*
X228795D01*
X229961D01*
Y511823D01*
X231127Y510657D01*
X225296D02*
X224130Y511823D01*
X221797D01*
X220631Y510657D01*
Y505991D01*
X221797Y504825D01*
X224130D01*
X225296Y505991D01*
Y510657D01*
X218298Y511823D02*
Y504825D01*
X213633D01*
X207801D02*
Y511823D01*
X211300Y508324D01*
X206635D01*
X274320Y584213D02*
Y578381D01*
X273154Y577215D01*
X270821D01*
X269655Y578381D01*
Y584213D01*
X267322Y577215D02*
X264990D01*
X266156D01*
Y584213D01*
X267322Y583046D01*
X261491D02*
X260324Y584213D01*
X257992D01*
X256826Y583046D01*
Y578381D01*
X257992Y577215D01*
X260324D01*
X261491Y578381D01*
Y583046D01*
X254493Y584213D02*
Y577215D01*
X249828D01*
X247495Y583046D02*
X246329Y584213D01*
X243996D01*
X242830Y583046D01*
Y581880D01*
X243996Y580714D01*
X245163D01*
X243996D01*
X242830Y579548D01*
Y578381D01*
X243996Y577215D01*
X246329D01*
X247495Y578381D01*
X218440Y657238D02*
Y651406D01*
X217274Y650240D01*
X214941D01*
X213775Y651406D01*
Y657238D01*
X211442Y650240D02*
X209110D01*
X210276D01*
Y657238D01*
X211442Y656071D01*
X205611D02*
X204445Y657238D01*
X202112D01*
X200946Y656071D01*
Y651406D01*
X202112Y650240D01*
X204445D01*
X205611Y651406D01*
Y656071D01*
X198613Y657238D02*
Y650240D01*
X193948D01*
X191615D02*
X189283D01*
X190449D01*
Y657238D01*
X191615Y656071D01*
X434340Y582308D02*
Y576476D01*
X433174Y575310D01*
X430841D01*
X429675Y576476D01*
Y582308D01*
X427342Y575310D02*
X425010D01*
X426176D01*
Y582308D01*
X427342Y581142D01*
X421511D02*
X420345Y582308D01*
X418012D01*
X416846Y581142D01*
Y576476D01*
X418012Y575310D01*
X420345D01*
X421511Y576476D01*
Y581142D01*
X409848D02*
X411014Y582308D01*
X413347D01*
X414513Y581142D01*
Y576476D01*
X413347Y575310D01*
X411014D01*
X409848Y576476D01*
X402850Y582308D02*
X407515D01*
Y578809D01*
X405183Y579975D01*
X404016D01*
X402850Y578809D01*
Y576476D01*
X404016Y575310D01*
X406349D01*
X407515Y576476D01*
X433070Y660413D02*
Y654581D01*
X431904Y653415D01*
X429571D01*
X428405Y654581D01*
Y660413D01*
X426072Y653415D02*
X423740D01*
X424906D01*
Y660413D01*
X426072Y659247D01*
X420241D02*
X419075Y660413D01*
X416742D01*
X415576Y659247D01*
Y654581D01*
X416742Y653415D01*
X419075D01*
X420241Y654581D01*
Y659247D01*
X408578D02*
X409744Y660413D01*
X412077D01*
X413243Y659247D01*
Y654581D01*
X412077Y653415D01*
X409744D01*
X408578Y654581D01*
X402746Y653415D02*
Y660413D01*
X406245Y656914D01*
X401580D01*
X471805Y587388D02*
Y581556D01*
X470639Y580390D01*
X468306D01*
X467140Y581556D01*
Y587388D01*
X464807Y580390D02*
X462475D01*
X463641D01*
Y587388D01*
X464807Y586222D01*
X458976D02*
X457809Y587388D01*
X455477D01*
X454311Y586222D01*
Y581556D01*
X455477Y580390D01*
X457809D01*
X458976Y581556D01*
Y586222D01*
X447313D02*
X448479Y587388D01*
X450812D01*
X451978Y586222D01*
Y581556D01*
X450812Y580390D01*
X448479D01*
X447313Y581556D01*
X444980Y586222D02*
X443814Y587388D01*
X441481D01*
X440315Y586222D01*
Y585055D01*
X441481Y583889D01*
X442648D01*
X441481D01*
X440315Y582723D01*
Y581556D01*
X441481Y580390D01*
X443814D01*
X444980Y581556D01*
X471170Y660413D02*
Y654581D01*
X470004Y653415D01*
X467671D01*
X466505Y654581D01*
Y660413D01*
X464172Y653415D02*
X461840D01*
X463006D01*
Y660413D01*
X464172Y659247D01*
X458341D02*
X457174Y660413D01*
X454842D01*
X453676Y659247D01*
Y654581D01*
X454842Y653415D01*
X457174D01*
X458341Y654581D01*
Y659247D01*
X446678D02*
X447844Y660413D01*
X450177D01*
X451343Y659247D01*
Y654581D01*
X450177Y653415D01*
X447844D01*
X446678Y654581D01*
X439680Y653415D02*
X444345D01*
X439680Y658080D01*
Y659247D01*
X440846Y660413D01*
X443179D01*
X444345Y659247D01*
X519430Y637553D02*
Y631721D01*
X518264Y630555D01*
X515931D01*
X514765Y631721D01*
Y637553D01*
X512432Y630555D02*
X510100D01*
X511266D01*
Y637553D01*
X512432Y636386D01*
X506601D02*
X505434Y637553D01*
X503102D01*
X501936Y636386D01*
Y631721D01*
X503102Y630555D01*
X505434D01*
X506601Y631721D01*
Y636386D01*
X494938D02*
X496104Y637553D01*
X498437D01*
X499603Y636386D01*
Y631721D01*
X498437Y630555D01*
X496104D01*
X494938Y631721D01*
X492605Y630555D02*
X490273D01*
X491439D01*
Y637553D01*
X492605Y636386D01*
X485775Y292748D02*
Y286916D01*
X484609Y285750D01*
X482276D01*
X481110Y286916D01*
Y292748D01*
X478777Y286916D02*
X477611Y285750D01*
X475278D01*
X474112Y286916D01*
Y291581D01*
X475278Y292748D01*
X477611D01*
X478777Y291581D01*
Y290415D01*
X477611Y289249D01*
X474112D01*
X471780Y285750D02*
Y292748D01*
X468281D01*
X467114Y291581D01*
Y289249D01*
X468281Y288083D01*
X471780D01*
X469447D02*
X467114Y285750D01*
X460117Y292748D02*
X464782D01*
Y289249D01*
X462449Y290415D01*
X461283D01*
X460117Y289249D01*
Y286916D01*
X461283Y285750D01*
X463615D01*
X464782Y286916D01*
X468255Y383159D02*
Y377328D01*
X467089Y376161D01*
X464756D01*
X463590Y377328D01*
Y383159D01*
X461258Y377328D02*
X460091Y376161D01*
X457759D01*
X456592Y377328D01*
Y381993D01*
X457759Y383159D01*
X460091D01*
X461258Y381993D01*
Y380827D01*
X460091Y379660D01*
X456592D01*
X454260Y376161D02*
Y383159D01*
X450761D01*
X449595Y381993D01*
Y379660D01*
X450761Y378494D01*
X454260D01*
X451927D02*
X449595Y376161D01*
X443763D02*
Y383159D01*
X447262Y379660D01*
X442597D01*
X451485Y292748D02*
Y286916D01*
X450319Y285750D01*
X447986D01*
X446820Y286916D01*
Y292748D01*
X444487Y286916D02*
X443321Y285750D01*
X440988D01*
X439822Y286916D01*
Y291581D01*
X440988Y292748D01*
X443321D01*
X444487Y291581D01*
Y290415D01*
X443321Y289249D01*
X439822D01*
X437490Y285750D02*
Y292748D01*
X433991D01*
X432824Y291581D01*
Y289249D01*
X433991Y288083D01*
X437490D01*
X435157D02*
X432824Y285750D01*
X430492Y291581D02*
X429325Y292748D01*
X426993D01*
X425827Y291581D01*
Y290415D01*
X426993Y289249D01*
X428159D01*
X426993D01*
X425827Y288083D01*
Y286916D01*
X426993Y285750D01*
X429325D01*
X430492Y286916D01*
X407670Y356883D02*
Y351051D01*
X406504Y349885D01*
X404171D01*
X403005Y351051D01*
Y356883D01*
X400672Y351051D02*
X399506Y349885D01*
X397173D01*
X396007Y351051D01*
Y355717D01*
X397173Y356883D01*
X399506D01*
X400672Y355717D01*
Y354550D01*
X399506Y353384D01*
X396007D01*
X393675Y349885D02*
Y356883D01*
X390176D01*
X389009Y355717D01*
Y353384D01*
X390176Y352218D01*
X393675D01*
X391342D02*
X389009Y349885D01*
X382012D02*
X386677D01*
X382012Y354550D01*
Y355717D01*
X383178Y356883D01*
X385510D01*
X386677Y355717D01*
X416560Y292748D02*
Y286916D01*
X415394Y285750D01*
X413061D01*
X411895Y286916D01*
Y292748D01*
X409562Y286916D02*
X408396Y285750D01*
X406063D01*
X404897Y286916D01*
Y291581D01*
X406063Y292748D01*
X408396D01*
X409562Y291581D01*
Y290415D01*
X408396Y289249D01*
X404897D01*
X402565Y285750D02*
Y292748D01*
X399066D01*
X397899Y291581D01*
Y289249D01*
X399066Y288083D01*
X402565D01*
X400232D02*
X397899Y285750D01*
X395567D02*
X393234D01*
X394400D01*
Y292748D01*
X395567Y291581D01*
X713105Y551193D02*
Y545361D01*
X711939Y544195D01*
X709606D01*
X708440Y545361D01*
Y551193D01*
X701442D02*
X703775Y550027D01*
X706107Y547694D01*
Y545361D01*
X704941Y544195D01*
X702608D01*
X701442Y545361D01*
Y546528D01*
X702608Y547694D01*
X706107D01*
X699109Y544195D02*
Y551193D01*
X695611D01*
X694444Y550027D01*
Y547694D01*
X695611Y546528D01*
X699109D01*
X696777D02*
X694444Y544195D01*
X687447D02*
X692112D01*
X687447Y548860D01*
Y550027D01*
X688613Y551193D01*
X690946D01*
X692112Y550027D01*
X763905Y528333D02*
Y522501D01*
X762739Y521335D01*
X760406D01*
X759240Y522501D01*
Y528333D01*
X752242D02*
X754575Y527166D01*
X756907Y524834D01*
Y522501D01*
X755741Y521335D01*
X753408D01*
X752242Y522501D01*
Y523668D01*
X753408Y524834D01*
X756907D01*
X745244Y527166D02*
X746411Y528333D01*
X748743D01*
X749910Y527166D01*
Y522501D01*
X748743Y521335D01*
X746411D01*
X745244Y522501D01*
X738247Y528333D02*
X742912D01*
Y524834D01*
X740579Y526000D01*
X739413D01*
X738247Y524834D01*
Y522501D01*
X739413Y521335D01*
X741746D01*
X742912Y522501D01*
X623570Y297828D02*
Y291996D01*
X622404Y290830D01*
X620071D01*
X618905Y291996D01*
Y297828D01*
X611907D02*
X616572D01*
Y294329D01*
X614240Y295495D01*
X613073D01*
X611907Y294329D01*
Y291996D01*
X613073Y290830D01*
X615406D01*
X616572Y291996D01*
X609575Y290830D02*
Y297828D01*
X606076D01*
X604909Y296661D01*
Y294329D01*
X606076Y293163D01*
X609575D01*
X607242D02*
X604909Y290830D01*
X599078D02*
Y297828D01*
X602577Y294329D01*
X597912D01*
X313690Y292113D02*
Y286281D01*
X312524Y285115D01*
X310191D01*
X309025Y286281D01*
Y292113D01*
X302027D02*
X306692D01*
Y288614D01*
X304360Y289780D01*
X303193D01*
X302027Y288614D01*
Y286281D01*
X303193Y285115D01*
X305526D01*
X306692Y286281D01*
X299694Y285115D02*
Y292113D01*
X296196D01*
X295029Y290947D01*
Y288614D01*
X296196Y287448D01*
X299694D01*
X297362D02*
X295029Y285115D01*
X292697Y290947D02*
X291530Y292113D01*
X289198D01*
X288032Y290947D01*
Y289780D01*
X289198Y288614D01*
X290364D01*
X289198D01*
X288032Y287448D01*
Y286281D01*
X289198Y285115D01*
X291530D01*
X292697Y286281D01*
X593090Y617233D02*
Y611401D01*
X591924Y610235D01*
X589591D01*
X588425Y611401D01*
Y617233D01*
X581427D02*
X583760Y616067D01*
X586092Y613734D01*
Y611401D01*
X584926Y610235D01*
X582593D01*
X581427Y611401D01*
Y612568D01*
X582593Y613734D01*
X586092D01*
X579095Y617233D02*
X574429Y610235D01*
Y617233D02*
X579095Y610235D01*
X567432D02*
X572097D01*
X567432Y614900D01*
Y616067D01*
X568598Y617233D01*
X570930D01*
X572097Y616067D01*
X377825Y497853D02*
Y492021D01*
X376659Y490855D01*
X374326D01*
X373160Y492021D01*
Y497853D01*
X370827D02*
X366162D01*
Y496687D01*
X370827Y492021D01*
Y490855D01*
X363829D02*
Y497853D01*
X360331D01*
X359164Y496687D01*
Y494354D01*
X360331Y493188D01*
X363829D01*
X361497D02*
X359164Y490855D01*
X352167D02*
X356832D01*
X352167Y495520D01*
Y496687D01*
X353333Y497853D01*
X355666D01*
X356832Y496687D01*
X434975Y454673D02*
Y448841D01*
X433809Y447675D01*
X431476D01*
X430310Y448841D01*
Y454673D01*
X427977D02*
X423312D01*
Y453507D01*
X427977Y448841D01*
Y447675D01*
X420979D02*
Y454673D01*
X417481D01*
X416314Y453507D01*
Y451174D01*
X417481Y450008D01*
X420979D01*
X418647D02*
X416314Y447675D01*
X413982D02*
X411649D01*
X412816D01*
Y454673D01*
X413982Y453507D01*
X582295Y715023D02*
Y709191D01*
X581129Y708025D01*
X578796D01*
X577630Y709191D01*
Y715023D01*
X575297Y708025D02*
X572965D01*
X574131D01*
Y715023D01*
X575297Y713857D01*
X569466Y708025D02*
X567133D01*
X568299D01*
Y715023D01*
X569466Y713857D01*
X558969D02*
X560135Y715023D01*
X562468D01*
X563634Y713857D01*
Y709191D01*
X562468Y708025D01*
X560135D01*
X558969Y709191D01*
X556637Y708025D02*
X554304D01*
X555470D01*
Y715023D01*
X556637Y713857D01*
X529590Y356883D02*
Y351051D01*
X528424Y349885D01*
X526091D01*
X524925Y351051D01*
Y356883D01*
X522592Y351051D02*
X521426Y349885D01*
X519093D01*
X517927Y351051D01*
Y355717D01*
X519093Y356883D01*
X521426D01*
X522592Y355717D01*
Y354550D01*
X521426Y353384D01*
X517927D01*
X515594Y349885D02*
Y356883D01*
X512096D01*
X510929Y355717D01*
Y353384D01*
X512096Y352218D01*
X515594D01*
X513262D02*
X510929Y349885D01*
X503932Y356883D02*
X506264Y355717D01*
X508597Y353384D01*
Y351051D01*
X507430Y349885D01*
X505098D01*
X503932Y351051D01*
Y352218D01*
X505098Y353384D01*
X508597D01*
X468630Y416573D02*
Y410741D01*
X467464Y409575D01*
X465131D01*
X463965Y410741D01*
Y416573D01*
X461632Y410741D02*
X460466Y409575D01*
X458133D01*
X456967Y410741D01*
Y415406D01*
X458133Y416573D01*
X460466D01*
X461632Y415406D01*
Y414240D01*
X460466Y413074D01*
X456967D01*
X449969Y415406D02*
X451136Y416573D01*
X453468D01*
X454635Y415406D01*
Y410741D01*
X453468Y409575D01*
X451136D01*
X449969Y410741D01*
X447637Y409575D02*
X445304D01*
X446470D01*
Y416573D01*
X447637Y415406D01*
X743585Y744233D02*
Y738401D01*
X742419Y737235D01*
X740086D01*
X738920Y738401D01*
Y744233D01*
X736587Y737235D02*
X734255D01*
X735421D01*
Y744233D01*
X736587Y743066D01*
X726091Y737235D02*
X730756D01*
X726091Y741900D01*
Y743066D01*
X727257Y744233D01*
X729589D01*
X730756Y743066D01*
X723758Y737235D02*
Y744233D01*
X720259D01*
X719093Y743066D01*
Y740734D01*
X720259Y739568D01*
X723758D01*
X721425D02*
X719093Y737235D01*
X716760D02*
X714428D01*
X715594D01*
Y744233D01*
X716760Y743066D01*
X122555Y197498D02*
Y191666D01*
X121389Y190500D01*
X119056D01*
X117890Y191666D01*
Y197498D01*
X115557Y190500D02*
X113225D01*
X114391D01*
Y197498D01*
X115557Y196332D01*
X109726Y197498D02*
Y190500D01*
X106227D01*
X105061Y191666D01*
Y196332D01*
X106227Y197498D01*
X109726D01*
X98063Y190500D02*
X102728D01*
X98063Y195165D01*
Y196332D01*
X99229Y197498D01*
X101562D01*
X102728Y196332D01*
X720725Y467373D02*
Y461541D01*
X719559Y460375D01*
X717226D01*
X716060Y461541D01*
Y467373D01*
X713727Y460375D02*
X711395D01*
X712561D01*
Y467373D01*
X713727Y466207D01*
X707896D02*
X706730Y467373D01*
X704397D01*
X703231Y466207D01*
Y465040D01*
X704397Y463874D01*
X705563D01*
X704397D01*
X703231Y462708D01*
Y461541D01*
X704397Y460375D01*
X706730D01*
X707896Y461541D01*
X700898Y460375D02*
Y467373D01*
X697399D01*
X696233Y466207D01*
Y463874D01*
X697399Y462708D01*
X700898D01*
X698566D02*
X696233Y460375D01*
X689235D02*
X693900D01*
X689235Y465040D01*
Y466207D01*
X690401Y467373D01*
X692734D01*
X693900Y466207D01*
X393065Y167653D02*
Y161821D01*
X391899Y160655D01*
X389566D01*
X388400Y161821D01*
Y167653D01*
X386067Y166486D02*
X384901Y167653D01*
X382568D01*
X381402Y166486D01*
Y165320D01*
X382568Y164154D01*
X383735D01*
X382568D01*
X381402Y162988D01*
Y161821D01*
X382568Y160655D01*
X384901D01*
X386067Y161821D01*
X857885Y396253D02*
Y390421D01*
X856719Y389255D01*
X854386D01*
X853220Y390421D01*
Y396253D01*
X850887Y389255D02*
X848555D01*
X849721D01*
Y396253D01*
X850887Y395087D01*
X841557Y389255D02*
Y396253D01*
X845056Y392754D01*
X840391D01*
X833393Y395087D02*
X834559Y396253D01*
X836892D01*
X838058Y395087D01*
Y390421D01*
X836892Y389255D01*
X834559D01*
X833393Y390421D01*
X826395Y389255D02*
X831060D01*
X826395Y393920D01*
Y395087D01*
X827561Y396253D01*
X829894D01*
X831060Y395087D01*
X895350Y396253D02*
Y390421D01*
X894184Y389255D01*
X891851D01*
X890685Y390421D01*
Y396253D01*
X888352Y389255D02*
X886020D01*
X887186D01*
Y396253D01*
X888352Y395087D01*
X879022Y389255D02*
Y396253D01*
X882521Y392754D01*
X877856D01*
X870858Y395087D02*
X872024Y396253D01*
X874357D01*
X875523Y395087D01*
Y390421D01*
X874357Y389255D01*
X872024D01*
X870858Y390421D01*
X868525Y395087D02*
X867359Y396253D01*
X865026D01*
X863860Y395087D01*
Y393920D01*
X865026Y392754D01*
X866193D01*
X865026D01*
X863860Y391588D01*
Y390421D01*
X865026Y389255D01*
X867359D01*
X868525Y390421D01*
X832485Y295288D02*
Y289456D01*
X831319Y288290D01*
X828986D01*
X827820Y289456D01*
Y295288D01*
X825487Y288290D02*
X823155D01*
X824321D01*
Y295288D01*
X825487Y294121D01*
X816157Y288290D02*
Y295288D01*
X819656Y291789D01*
X814991D01*
X807993Y294121D02*
X809159Y295288D01*
X811492D01*
X812658Y294121D01*
Y289456D01*
X811492Y288290D01*
X809159D01*
X807993Y289456D01*
X802161Y288290D02*
Y295288D01*
X805660Y291789D01*
X800995D01*
X889635Y268618D02*
Y262786D01*
X888469Y261620D01*
X886136D01*
X884970Y262786D01*
Y268618D01*
X882637Y261620D02*
X880305D01*
X881471D01*
Y268618D01*
X882637Y267451D01*
X873307Y261620D02*
Y268618D01*
X876806Y265119D01*
X872141D01*
X865143Y267451D02*
X866309Y268618D01*
X868642D01*
X869808Y267451D01*
Y262786D01*
X868642Y261620D01*
X866309D01*
X865143Y262786D01*
X858145Y268618D02*
X862810D01*
Y265119D01*
X860478Y266285D01*
X859311D01*
X858145Y265119D01*
Y262786D01*
X859311Y261620D01*
X861644D01*
X862810Y262786D01*
X909955Y318783D02*
Y312951D01*
X908789Y311785D01*
X906456D01*
X905290Y312951D01*
Y318783D01*
X902957Y311785D02*
X900625D01*
X901791D01*
Y318783D01*
X902957Y317617D01*
X893627Y311785D02*
Y318783D01*
X897126Y315284D01*
X892461D01*
X885463Y317617D02*
X886629Y318783D01*
X888962D01*
X890128Y317617D01*
Y312951D01*
X888962Y311785D01*
X886629D01*
X885463Y312951D01*
X883130Y311785D02*
X880798D01*
X881964D01*
Y318783D01*
X883130Y317617D01*
X977900Y399428D02*
Y393596D01*
X976734Y392430D01*
X974401D01*
X973235Y393596D01*
Y399428D01*
X970902Y392430D02*
X968570D01*
X969736D01*
Y399428D01*
X970902Y398261D01*
X961572Y392430D02*
Y399428D01*
X965071Y395929D01*
X960406D01*
X958073Y392430D02*
Y399428D01*
X954574D01*
X953408Y398261D01*
Y395929D01*
X954574Y394763D01*
X958073D01*
X955741D02*
X953408Y392430D01*
X946410D02*
X951075D01*
X946410Y397095D01*
Y398261D01*
X947576Y399428D01*
X949909D01*
X951075Y398261D01*
X1007110Y448323D02*
Y442491D01*
X1005944Y441325D01*
X1003611D01*
X1002445Y442491D01*
Y448323D01*
X1000112Y441325D02*
X997780D01*
X998946D01*
Y448323D01*
X1000112Y447156D01*
X990782Y441325D02*
Y448323D01*
X994281Y444824D01*
X989616D01*
X987283Y441325D02*
Y448323D01*
X983784D01*
X982618Y447156D01*
Y444824D01*
X983784Y443658D01*
X987283D01*
X984950D02*
X982618Y441325D01*
X980285Y447156D02*
X979119Y448323D01*
X976786D01*
X975620Y447156D01*
Y445990D01*
X976786Y444824D01*
X977953D01*
X976786D01*
X975620Y443658D01*
Y442491D01*
X976786Y441325D01*
X979119D01*
X980285Y442491D01*
X1033145Y399428D02*
Y393596D01*
X1031979Y392430D01*
X1029646D01*
X1028480Y393596D01*
Y399428D01*
X1026147Y392430D02*
X1023815D01*
X1024981D01*
Y399428D01*
X1026147Y398261D01*
X1016817Y392430D02*
Y399428D01*
X1020316Y395929D01*
X1015651D01*
X1013318Y392430D02*
Y399428D01*
X1009819D01*
X1008653Y398261D01*
Y395929D01*
X1009819Y394763D01*
X1013318D01*
X1010985D02*
X1008653Y392430D01*
X1002821D02*
Y399428D01*
X1006320Y395929D01*
X1001655D01*
X1058545Y448323D02*
Y442491D01*
X1057379Y441325D01*
X1055046D01*
X1053880Y442491D01*
Y448323D01*
X1051547Y441325D02*
X1049215D01*
X1050381D01*
Y448323D01*
X1051547Y447156D01*
X1042217Y441325D02*
Y448323D01*
X1045716Y444824D01*
X1041051D01*
X1038718Y441325D02*
Y448323D01*
X1035219D01*
X1034053Y447156D01*
Y444824D01*
X1035219Y443658D01*
X1038718D01*
X1036385D02*
X1034053Y441325D01*
X1031720D02*
X1029388D01*
X1030554D01*
Y448323D01*
X1031720Y447156D01*
X938190Y372758D02*
Y366926D01*
X937024Y365760D01*
X934691D01*
X933525Y366926D01*
Y372758D01*
X931192Y365760D02*
X928860D01*
X930026D01*
Y372758D01*
X931192Y371591D01*
X921862Y365760D02*
Y372758D01*
X925361Y369259D01*
X920696D01*
X918363Y364594D02*
X913698D01*
X911365Y365760D02*
Y370425D01*
X909033Y372758D01*
X906700Y370425D01*
Y365760D01*
Y369259D01*
X911365D01*
X842010Y327038D02*
Y321206D01*
X840844Y320040D01*
X838511D01*
X837345Y321206D01*
Y327038D01*
X835012Y320040D02*
X832680D01*
X833846D01*
Y327038D01*
X835012Y325872D01*
X825682Y320040D02*
Y327038D01*
X829181Y323539D01*
X824516D01*
X822183Y327038D02*
X817518D01*
X819850D01*
Y320040D01*
X815185Y327038D02*
Y322373D01*
X812853Y320040D01*
X810520Y322373D01*
Y327038D01*
X803522Y325872D02*
X804689Y327038D01*
X807021D01*
X808187Y325872D01*
Y324705D01*
X807021Y323539D01*
X804689D01*
X803522Y322373D01*
Y321206D01*
X804689Y320040D01*
X807021D01*
X808187Y321206D01*
X801190Y320040D02*
X798857D01*
X800023D01*
Y327038D01*
X801190Y325872D01*
X690245Y358788D02*
Y352956D01*
X689079Y351790D01*
X686746D01*
X685580Y352956D01*
Y358788D01*
X678582D02*
X680915Y357621D01*
X683247Y355289D01*
Y352956D01*
X682081Y351790D01*
X679748D01*
X678582Y352956D01*
Y354123D01*
X679748Y355289D01*
X683247D01*
X671584Y357621D02*
X672751Y358788D01*
X675083D01*
X676249Y357621D01*
Y352956D01*
X675083Y351790D01*
X672751D01*
X671584Y352956D01*
X669252Y357621D02*
X668085Y358788D01*
X665753D01*
X664587Y357621D01*
Y356455D01*
X665753Y355289D01*
X666919D01*
X665753D01*
X664587Y354123D01*
Y352956D01*
X665753Y351790D01*
X668085D01*
X669252Y352956D01*
X661670Y407683D02*
Y401851D01*
X660504Y400685D01*
X658171D01*
X657005Y401851D01*
Y407683D01*
X650007D02*
X652340Y406516D01*
X654672Y404184D01*
Y401851D01*
X653506Y400685D01*
X651173D01*
X650007Y401851D01*
Y403018D01*
X651173Y404184D01*
X654672D01*
X647674Y400685D02*
Y407683D01*
X644176D01*
X643009Y406516D01*
Y404184D01*
X644176Y403018D01*
X647674D01*
X645342D02*
X643009Y400685D01*
X640677D02*
X638344D01*
X639510D01*
Y407683D01*
X640677Y406516D01*
X683895Y280048D02*
Y274216D01*
X682729Y273050D01*
X680396D01*
X679230Y274216D01*
Y280048D01*
X672232D02*
X676897D01*
Y276549D01*
X674565Y277715D01*
X673398D01*
X672232Y276549D01*
Y274216D01*
X673398Y273050D01*
X675731D01*
X676897Y274216D01*
X665234Y278881D02*
X666401Y280048D01*
X668733D01*
X669900Y278881D01*
Y274216D01*
X668733Y273050D01*
X666401D01*
X665234Y274216D01*
X662902Y273050D02*
X660569D01*
X661736D01*
Y280048D01*
X662902Y278881D01*
X311785Y227343D02*
Y221511D01*
X310619Y220345D01*
X308286D01*
X307120Y221511D01*
Y227343D01*
X300122D02*
X304787D01*
Y223844D01*
X302455Y225010D01*
X301288D01*
X300122Y223844D01*
Y221511D01*
X301288Y220345D01*
X303621D01*
X304787Y221511D01*
X297789Y220345D02*
Y227343D01*
X294291D01*
X293124Y226176D01*
Y223844D01*
X294291Y222678D01*
X297789D01*
X295457D02*
X293124Y220345D01*
X290792D02*
X288459D01*
X289625D01*
Y227343D01*
X290792Y226176D01*
X347980Y288303D02*
Y282471D01*
X346814Y281305D01*
X344481D01*
X343315Y282471D01*
Y288303D01*
X336317D02*
X340982D01*
Y284804D01*
X338650Y285970D01*
X337483D01*
X336317Y284804D01*
Y282471D01*
X337483Y281305D01*
X339816D01*
X340982Y282471D01*
X333984Y281305D02*
Y288303D01*
X330486D01*
X329319Y287136D01*
Y284804D01*
X330486Y283638D01*
X333984D01*
X331652D02*
X329319Y281305D01*
X322322D02*
X326987D01*
X322322Y285970D01*
Y287136D01*
X323488Y288303D01*
X325821D01*
X326987Y287136D01*
X478790Y546748D02*
Y540916D01*
X477624Y539750D01*
X475291D01*
X474125Y540916D01*
Y546748D01*
X471792Y545582D02*
X470626Y546748D01*
X468293D01*
X467127Y545582D01*
Y544415D01*
X468293Y543249D01*
X467127Y542083D01*
Y540916D01*
X468293Y539750D01*
X470626D01*
X471792Y540916D01*
Y542083D01*
X470626Y543249D01*
X471792Y544415D01*
Y545582D01*
X470626Y543249D02*
X468293D01*
X464795Y539750D02*
Y546748D01*
X461296D01*
X460129Y545582D01*
Y543249D01*
X461296Y542083D01*
X464795D01*
X462462D02*
X460129Y539750D01*
X457797D02*
X455464D01*
X456631D01*
Y546748D01*
X457797Y545582D01*
X452755Y504203D02*
Y498371D01*
X451589Y497205D01*
X449256D01*
X448090Y498371D01*
Y504203D01*
X445757Y503036D02*
X444591Y504203D01*
X442258D01*
X441092Y503036D01*
Y501870D01*
X442258Y500704D01*
X441092Y499538D01*
Y498371D01*
X442258Y497205D01*
X444591D01*
X445757Y498371D01*
Y499538D01*
X444591Y500704D01*
X445757Y501870D01*
Y503036D01*
X444591Y500704D02*
X442258D01*
X438759Y497205D02*
Y504203D01*
X435261D01*
X434094Y503036D01*
Y500704D01*
X435261Y499538D01*
X438759D01*
X436427D02*
X434094Y497205D01*
X427097D02*
X431762D01*
X427097Y501870D01*
Y503036D01*
X428263Y504203D01*
X430596D01*
X431762Y503036D01*
X427355Y563258D02*
Y557426D01*
X426189Y556260D01*
X423856D01*
X422690Y557426D01*
Y563258D01*
X420357Y562091D02*
X419191Y563258D01*
X416858D01*
X415692Y562091D01*
Y560925D01*
X416858Y559759D01*
X415692Y558593D01*
Y557426D01*
X416858Y556260D01*
X419191D01*
X420357Y557426D01*
Y558593D01*
X419191Y559759D01*
X420357Y560925D01*
Y562091D01*
X419191Y559759D02*
X416858D01*
X413359Y556260D02*
Y563258D01*
X409861D01*
X408694Y562091D01*
Y559759D01*
X409861Y558593D01*
X413359D01*
X411027D02*
X408694Y556260D01*
X406362Y562091D02*
X405196Y563258D01*
X402863D01*
X401697Y562091D01*
Y560925D01*
X402863Y559759D01*
X404029D01*
X402863D01*
X401697Y558593D01*
Y557426D01*
X402863Y556260D01*
X405196D01*
X406362Y557426D01*
X375285Y373393D02*
Y367561D01*
X374119Y366395D01*
X371786D01*
X370620Y367561D01*
Y373393D01*
X368287D02*
X363622D01*
Y372226D01*
X368287Y367561D01*
Y366395D01*
X356624Y372226D02*
X357791Y373393D01*
X360123D01*
X361289Y372226D01*
Y367561D01*
X360123Y366395D01*
X357791D01*
X356624Y367561D01*
X354292Y366395D02*
X351959D01*
X353125D01*
Y373393D01*
X354292Y372226D01*
X332740Y403873D02*
Y398041D01*
X331574Y396875D01*
X329241D01*
X328075Y398041D01*
Y403873D01*
X325742D02*
X321077D01*
Y402706D01*
X325742Y398041D01*
Y396875D01*
X781685Y443243D02*
Y437411D01*
X780519Y436245D01*
X778186D01*
X777020Y437411D01*
Y443243D01*
X770022D02*
X772355Y442076D01*
X774687Y439744D01*
Y437411D01*
X773521Y436245D01*
X771188D01*
X770022Y437411D01*
Y438578D01*
X771188Y439744D01*
X774687D01*
X767690Y436245D02*
Y443243D01*
X764191D01*
X763024Y442076D01*
Y439744D01*
X764191Y438578D01*
X767690D01*
X765357D02*
X763024Y436245D01*
X760692Y442076D02*
X759526Y443243D01*
X757193D01*
X756027Y442076D01*
Y440910D01*
X757193Y439744D01*
X758359D01*
X757193D01*
X756027Y438578D01*
Y437411D01*
X757193Y436245D01*
X759526D01*
X760692Y437411D01*
X655955Y330213D02*
Y324381D01*
X654789Y323215D01*
X652456D01*
X651290Y324381D01*
Y330213D01*
X644292D02*
X648957D01*
Y326714D01*
X646625Y327880D01*
X645458D01*
X644292Y326714D01*
Y324381D01*
X645458Y323215D01*
X647791D01*
X648957Y324381D01*
X641960Y330213D02*
Y323215D01*
X638461D01*
X637294Y324381D01*
Y329047D01*
X638461Y330213D01*
X641960D01*
X634962Y323215D02*
X632629D01*
X633796D01*
Y330213D01*
X634962Y329047D01*
X687070Y748043D02*
Y742211D01*
X685904Y741045D01*
X683571D01*
X682405Y742211D01*
Y748043D01*
X680072Y741045D02*
X677740D01*
X678906D01*
Y748043D01*
X680072Y746877D01*
X669576Y741045D02*
X674241D01*
X669576Y745710D01*
Y746877D01*
X670742Y748043D01*
X673074D01*
X674241Y746877D01*
X662578D02*
X663744Y748043D01*
X666077D01*
X667243Y746877D01*
Y742211D01*
X666077Y741045D01*
X663744D01*
X662578Y742211D01*
X660245Y741045D02*
X657913D01*
X659079D01*
Y748043D01*
X660245Y746877D01*
D100*
X813435Y260998D02*
Y255166D01*
X812269Y254000D01*
X809936D01*
X808770Y255166D01*
Y260998D01*
X806437Y254000D02*
X804105D01*
X805271D01*
Y260998D01*
X806437Y259832D01*
X797107Y254000D02*
Y260998D01*
X800606Y257499D01*
X795941D01*
X793608Y252834D02*
X788943D01*
X786610Y260998D02*
Y254000D01*
X783111D01*
X781945Y255166D01*
Y256333D01*
X783111Y257499D01*
X786610D01*
X783111D01*
X781945Y258665D01*
Y259832D01*
X783111Y260998D01*
X786610D01*
M02*
