G04 Layer_Color=8388736*
%FSLAX44Y44*%
%MOMM*%
G71*
G01*
G75*
%ADD10R,1.4500X2.0000*%
%ADD11R,0.8000X1.5000*%
%ADD12R,1.5000X3.0000*%
%ADD13R,0.8000X1.6000*%
%ADD14R,3.2000X1.4000*%
G04:AMPARAMS|DCode=15|XSize=0.305mm|YSize=0.889mm|CornerRadius=0.0763mm|HoleSize=0mm|Usage=FLASHONLY|Rotation=90.000|XOffset=0mm|YOffset=0mm|HoleType=Round|Shape=RoundedRectangle|*
%AMROUNDEDRECTD15*
21,1,0.3050,0.7365,0,0,90.0*
21,1,0.1525,0.8890,0,0,90.0*
1,1,0.1525,0.3683,0.0763*
1,1,0.1525,0.3683,-0.0763*
1,1,0.1525,-0.3683,-0.0763*
1,1,0.1525,-0.3683,0.0763*
%
%ADD15ROUNDEDRECTD15*%
%ADD16R,1.8000X1.0000*%
%ADD17R,5.0000X2.0000*%
%ADD18R,4.0000X1.7000*%
%ADD19R,0.7620X0.7620*%
G04:AMPARAMS|DCode=20|XSize=1.1mm|YSize=0.6mm|CornerRadius=0mm|HoleSize=0mm|Usage=FLASHONLY|Rotation=180.000|XOffset=0mm|YOffset=0mm|HoleType=Round|Shape=Octagon|*
%AMOCTAGOND20*
4,1,8,-0.5500,0.1500,-0.5500,-0.1500,-0.4000,-0.3000,0.4000,-0.3000,0.5500,-0.1500,0.5500,0.1500,0.4000,0.3000,-0.4000,0.3000,-0.5500,0.1500,0.0*
%
%ADD20OCTAGOND20*%

%ADD21R,1.1000X0.6000*%
%ADD22R,0.8500X3.2000*%
%ADD23O,0.8500X3.2000*%
%ADD24O,1.8000X0.2700*%
%ADD25O,0.2700X1.8000*%
%ADD26R,1.2000X1.2700*%
%ADD27R,1.4000X1.3000*%
G04:AMPARAMS|DCode=28|XSize=1.925mm|YSize=5.5mm|CornerRadius=0.4813mm|HoleSize=0mm|Usage=FLASHONLY|Rotation=0.000|XOffset=0mm|YOffset=0mm|HoleType=Round|Shape=RoundedRectangle|*
%AMROUNDEDRECTD28*
21,1,1.9250,4.5375,0,0,0.0*
21,1,0.9625,5.5000,0,0,0.0*
1,1,0.9625,0.4813,-2.2687*
1,1,0.9625,-0.4813,-2.2687*
1,1,0.9625,-0.4813,2.2687*
1,1,0.9625,0.4813,2.2687*
%
%ADD28ROUNDEDRECTD28*%
%ADD29R,0.8300X0.8300*%
%ADD30R,1.2500X0.8000*%
%ADD31R,1.5240X1.5240*%
%ADD32R,2.3900X2.6000*%
%ADD33R,0.6000X1.3000*%
%ADD34O,0.6000X1.3000*%
%ADD35R,5.0000X2.9000*%
%ADD36R,3.0000X5.4000*%
%ADD37R,3.2000X2.2000*%
%ADD38R,1.5240X1.5240*%
%ADD39R,1.2000X2.8000*%
%ADD40R,0.5000X1.1000*%
%ADD41R,2.3000X3.2000*%
%ADD42R,0.5500X2.1000*%
G04:AMPARAMS|DCode=43|XSize=0.55mm|YSize=2.1mm|CornerRadius=0mm|HoleSize=0mm|Usage=FLASHONLY|Rotation=0.000|XOffset=0mm|YOffset=0mm|HoleType=Round|Shape=Octagon|*
%AMOCTAGOND43*
4,1,8,-0.1375,1.0500,0.1375,1.0500,0.2750,0.9125,0.2750,-0.9125,0.1375,-1.0500,-0.1375,-1.0500,-0.2750,-0.9125,-0.2750,0.9125,-0.1375,1.0500,0.0*
%
%ADD43OCTAGOND43*%

%ADD44R,1.2700X1.5240*%
%ADD45R,1.5240X1.2700*%
%ADD46R,1.2700X1.2000*%
%ADD47R,0.8300X0.8300*%
%ADD48O,1.0000X0.4000*%
%ADD49O,0.4000X1.0000*%
%ADD50O,1.6000X0.3800*%
%ADD51R,1.6000X0.3800*%
%ADD52R,0.5000X1.2000*%
%ADD53R,1.2000X0.5000*%
%ADD60C,4.0000*%
%ADD61C,1.2000*%
%ADD63C,1.6000*%
%ADD64C,0.6000*%
%ADD65C,2.0000*%
%ADD66R,1.6000X1.6000*%
%ADD68R,5.8000X5.8000*%
%ADD69C,2.2000*%
%ADD70R,2.2000X2.2000*%
%ADD71R,1.6000X1.6000*%
D10*
X375930Y422760D02*
D03*
X511930D02*
D03*
X375930Y339260D02*
D03*
X511930D02*
D03*
D11*
X488930Y396760D02*
D03*
X477932D02*
D03*
X466931D02*
D03*
X455930D02*
D03*
X444930D02*
D03*
X433931D02*
D03*
X422930D02*
D03*
X411930D02*
D03*
D12*
X914400Y725170D02*
D03*
X889000D02*
D03*
X863600D02*
D03*
X901700Y770170D02*
D03*
X876300D02*
D03*
X850900D02*
D03*
X838200Y725170D02*
D03*
X825500Y770170D02*
D03*
X563880Y223520D02*
D03*
X576580Y178520D02*
D03*
X589280Y223520D02*
D03*
X614680D02*
D03*
X640080D02*
D03*
X601980Y178520D02*
D03*
X627380D02*
D03*
X652780D02*
D03*
X665480Y223520D02*
D03*
X690880D02*
D03*
X716280D02*
D03*
X678180Y178520D02*
D03*
X703580D02*
D03*
X728980D02*
D03*
D13*
X824865Y687705D02*
D03*
X812165D02*
D03*
Y636905D02*
D03*
X824865D02*
D03*
D14*
X854905Y684170D02*
D03*
X926905D02*
D03*
Y639170D02*
D03*
X854905D02*
D03*
D15*
X610870Y651510D02*
D03*
Y656510D02*
D03*
Y661510D02*
D03*
Y666510D02*
D03*
Y671510D02*
D03*
X569980D02*
D03*
Y666510D02*
D03*
Y661510D02*
D03*
Y656510D02*
D03*
Y651510D02*
D03*
D16*
X721360Y469030D02*
D03*
Y494030D02*
D03*
D17*
X323850Y500455D02*
D03*
D18*
Y397435D02*
D03*
D19*
X398780Y490475D02*
D03*
Y506475D02*
D03*
D20*
X471170Y505460D02*
D03*
D21*
Y515460D02*
D03*
Y525460D02*
D03*
Y535460D02*
D03*
Y545460D02*
D03*
X440170Y505460D02*
D03*
Y515460D02*
D03*
Y525460D02*
D03*
X440690Y535940D02*
D03*
Y546100D02*
D03*
D22*
X342900Y312375D02*
D03*
D23*
X317500D02*
D03*
X292100D02*
D03*
X342900Y227375D02*
D03*
X317500D02*
D03*
X292100D02*
D03*
D24*
X671450Y446370D02*
D03*
Y451370D02*
D03*
Y456370D02*
D03*
Y461370D02*
D03*
Y466370D02*
D03*
Y471370D02*
D03*
Y476370D02*
D03*
Y481370D02*
D03*
Y486370D02*
D03*
Y491370D02*
D03*
Y496370D02*
D03*
Y501370D02*
D03*
Y506370D02*
D03*
Y511370D02*
D03*
Y516370D02*
D03*
Y521370D02*
D03*
X560450D02*
D03*
Y516370D02*
D03*
Y511370D02*
D03*
Y506370D02*
D03*
Y501370D02*
D03*
Y496370D02*
D03*
Y491370D02*
D03*
Y486370D02*
D03*
Y481370D02*
D03*
Y476370D02*
D03*
Y471370D02*
D03*
Y466370D02*
D03*
Y461370D02*
D03*
Y456370D02*
D03*
Y451370D02*
D03*
Y446370D02*
D03*
D25*
X653450Y539370D02*
D03*
X648450D02*
D03*
X643450D02*
D03*
X638450D02*
D03*
X633450D02*
D03*
X628450D02*
D03*
X623450D02*
D03*
X618450D02*
D03*
X613450D02*
D03*
X608450D02*
D03*
X603450D02*
D03*
X598450D02*
D03*
X593450D02*
D03*
X588450D02*
D03*
X583450D02*
D03*
X578450D02*
D03*
Y428370D02*
D03*
X583450D02*
D03*
X588450D02*
D03*
X593450D02*
D03*
X598450D02*
D03*
X603450D02*
D03*
X608450D02*
D03*
X613450D02*
D03*
X618450D02*
D03*
X623450D02*
D03*
X628450D02*
D03*
X633450D02*
D03*
X638450D02*
D03*
X643450D02*
D03*
X648450D02*
D03*
X653450D02*
D03*
D26*
X698500Y392370D02*
D03*
X675640D02*
D03*
X698500Y419100D02*
D03*
X675640D02*
D03*
D27*
X292100Y158220D02*
D03*
Y187220D02*
D03*
D28*
X645385Y76200D02*
D03*
X689385D02*
D03*
D29*
X600380Y105410D02*
D03*
X622630D02*
D03*
D30*
X644055Y34290D02*
D03*
X680555D02*
D03*
D31*
X572135D02*
D03*
X606425D02*
D03*
X226695Y319405D02*
D03*
X192405D02*
D03*
X545465Y127000D02*
D03*
X579755D02*
D03*
X636905D02*
D03*
X602615D02*
D03*
D32*
X728980Y125440D02*
D03*
Y57440D02*
D03*
D33*
X130175Y258655D02*
D03*
D34*
X142875D02*
D03*
X155575D02*
D03*
X168275D02*
D03*
X130175Y316655D02*
D03*
X142875D02*
D03*
X155575D02*
D03*
X168275D02*
D03*
D35*
X139175Y287655D02*
D03*
D36*
X162340Y157390D02*
D03*
X43340Y157480D02*
D03*
D37*
X76835Y240035D02*
D03*
Y320035D02*
D03*
D38*
X195580Y254000D02*
D03*
Y288290D02*
D03*
X226060Y351790D02*
D03*
Y386080D02*
D03*
D39*
X103380Y417195D02*
D03*
X135380D02*
D03*
X103380Y386715D02*
D03*
X135380D02*
D03*
X103380Y356235D02*
D03*
X135380D02*
D03*
D40*
X612775Y64200D02*
D03*
X622275Y88200D02*
D03*
X612775D02*
D03*
X603275D02*
D03*
Y64200D02*
D03*
X622275D02*
D03*
D41*
X781330Y550620D02*
D03*
X1074330D02*
D03*
D42*
X809830Y474620D02*
D03*
X813830Y563620D02*
D03*
X817830Y474620D02*
D03*
X821830Y563620D02*
D03*
X825830Y474620D02*
D03*
X829830Y563620D02*
D03*
X833830Y474620D02*
D03*
X837830Y563620D02*
D03*
X841830Y474620D02*
D03*
X845830Y563620D02*
D03*
X849830Y474620D02*
D03*
X853830Y563620D02*
D03*
X857830Y474620D02*
D03*
X861830Y563620D02*
D03*
X865830Y474620D02*
D03*
X869830Y563620D02*
D03*
X873830Y474620D02*
D03*
X877830Y563620D02*
D03*
X881830Y474620D02*
D03*
X885830Y563620D02*
D03*
X889830Y474620D02*
D03*
X893830Y563620D02*
D03*
X897830Y474620D02*
D03*
X901830Y563620D02*
D03*
X905830Y474620D02*
D03*
X909830Y563620D02*
D03*
X913830Y474620D02*
D03*
X917830Y563620D02*
D03*
X921830Y474620D02*
D03*
X925830Y563620D02*
D03*
X929830Y474620D02*
D03*
X933830Y563620D02*
D03*
X937830Y474620D02*
D03*
X941830Y563620D02*
D03*
X945830Y474620D02*
D03*
X949830Y563620D02*
D03*
X985830Y474620D02*
D03*
X989830Y563620D02*
D03*
X993830Y474620D02*
D03*
X997830Y563620D02*
D03*
X1001830Y474620D02*
D03*
X1005830Y563620D02*
D03*
X1009830Y474620D02*
D03*
X1013830Y563620D02*
D03*
X1017830Y474620D02*
D03*
X1021830Y563620D02*
D03*
X1025830Y474620D02*
D03*
X1029830Y563620D02*
D03*
X1033830Y474620D02*
D03*
X1037830Y563620D02*
D03*
X1041830Y474620D02*
D03*
D43*
X1045830Y563620D02*
D03*
D44*
X181610Y381635D02*
D03*
Y358775D02*
D03*
X226695Y292735D02*
D03*
Y269875D02*
D03*
X573405Y78740D02*
D03*
Y55880D02*
D03*
X544830Y276860D02*
D03*
Y254000D02*
D03*
X521970Y276860D02*
D03*
Y254000D02*
D03*
X497840Y276860D02*
D03*
Y254000D02*
D03*
X753745Y462280D02*
D03*
Y485140D02*
D03*
D45*
X317500Y345440D02*
D03*
X340360D02*
D03*
X583565Y100330D02*
D03*
X560705D02*
D03*
X401320Y278130D02*
D03*
X378460D02*
D03*
X447040D02*
D03*
X424180D02*
D03*
D46*
X726440Y419100D02*
D03*
Y441960D02*
D03*
D47*
X377825Y489890D02*
D03*
Y512140D02*
D03*
D48*
X701675Y320675D02*
D03*
Y328295D02*
D03*
D49*
X535940Y562610D02*
D03*
X543560D02*
D03*
Y585470D02*
D03*
X535940D02*
D03*
X543560Y607060D02*
D03*
X535940D02*
D03*
Y628650D02*
D03*
X543560D02*
D03*
D50*
X498090Y604780D02*
D03*
Y611280D02*
D03*
Y617780D02*
D03*
Y624280D02*
D03*
Y630780D02*
D03*
Y637280D02*
D03*
Y643780D02*
D03*
Y650280D02*
D03*
Y598280D02*
D03*
Y591780D02*
D03*
X434090Y604780D02*
D03*
Y611280D02*
D03*
Y617780D02*
D03*
Y624280D02*
D03*
Y630780D02*
D03*
Y637280D02*
D03*
Y643780D02*
D03*
Y598280D02*
D03*
Y591780D02*
D03*
D51*
Y650280D02*
D03*
D52*
X666880Y649080D02*
D03*
X674380D02*
D03*
X681880D02*
D03*
X689380D02*
D03*
X696880D02*
D03*
X704380D02*
D03*
X711880D02*
D03*
X719380D02*
D03*
X726880D02*
D03*
X734380D02*
D03*
X741880D02*
D03*
D53*
X754380Y767080D02*
D03*
Y759580D02*
D03*
Y752080D02*
D03*
Y744580D02*
D03*
Y737080D02*
D03*
Y729580D02*
D03*
Y722080D02*
D03*
Y714580D02*
D03*
Y707080D02*
D03*
Y699580D02*
D03*
Y692080D02*
D03*
Y684580D02*
D03*
Y677080D02*
D03*
Y669580D02*
D03*
Y662080D02*
D03*
Y654580D02*
D03*
X654380D02*
D03*
Y662080D02*
D03*
Y669580D02*
D03*
Y677080D02*
D03*
Y684580D02*
D03*
Y692080D02*
D03*
Y699580D02*
D03*
Y707080D02*
D03*
Y714580D02*
D03*
Y722080D02*
D03*
Y729580D02*
D03*
Y737080D02*
D03*
D60*
X1130000Y754390D02*
D03*
X50000Y40000D02*
D03*
Y540000D02*
D03*
X1130000Y40000D02*
D03*
D61*
X316230Y54775D02*
D03*
Y104775D02*
D03*
X455295Y135090D02*
D03*
Y85090D02*
D03*
D63*
X242085Y469900D02*
D03*
X102085D02*
D03*
X726440Y312420D02*
D03*
Y287020D02*
D03*
X431800Y244480D02*
D03*
X406400D02*
D03*
X457200D02*
D03*
D64*
X160655Y277165D02*
D03*
X149225D02*
D03*
X139065D02*
D03*
Y287655D02*
D03*
Y298755D02*
D03*
X149225D02*
D03*
X160655D02*
D03*
X149225Y287655D02*
D03*
X160655D02*
D03*
D65*
X226060Y169740D02*
D03*
Y205740D02*
D03*
D66*
X726440Y337820D02*
D03*
D68*
X1048830Y35120D02*
D03*
X806830D02*
D03*
D69*
X82610Y633090D02*
D03*
X117610D02*
D03*
X152610D02*
D03*
X187610D02*
D03*
X222610D02*
D03*
X257610D02*
D03*
X292610D02*
D03*
X327610D02*
D03*
X362610D02*
D03*
D70*
X47610D02*
D03*
D71*
X381000Y244480D02*
D03*
M02*
